<?xml version="1.0" encoding="utf-8"?>
<!-- Generated by Mocodo 4.1.1 -->
<svg width="198" height="690" viewBox="0 0 198 690" xmlns="http://www.w3.org/2000/svg">
<rect x="0" y="0" width="198" height="690" fill="#f5f5f5" stroke="none" stroke-width="0"/>

<!-- Association EFFECTUE -->
<g>
	<line x1="99" y1="303" x2="99" y2="211" stroke="#bf812d" stroke-width="2"/>
	<line x1="99" y1="85" x2="99" y2="211" stroke="#bf812d" stroke-width="2"/>
	<g>
		<path d="M117 186 a14 14 90 0 1 14 14 V211 h-64 V200 a14 14 90 0 1 14 -14" fill="#dfc27d" stroke="#dfc27d" stroke-width="0"/>
		<path d="M131 211 v11 a14 14 90 0 1 -14 14 H81 a14 14 90 0 1 -14 -14 V211 H64" fill="#f6e8c3" stroke="#f6e8c3" stroke-width="0"/>
		<rect x="67" y="186" width="64" height="50" fill="none" rx="14" stroke="#bf812d" stroke-width="2"/>
		<line x1="67" y1="211" x2="131" y2="211" stroke="#bf812d" stroke-width="1"/>
		<text x="74" y="203.75" fill="#000000" font-family="Verdana" font-size="12">effectue</text>
	</g>
	<text x="104" y="253" fill="#01665e" font-family="Verdana" font-size="12">1,1</text>
	<text x="104" y="178" fill="#01665e" font-family="Verdana" font-size="12">0,N</text>
</g>

<!-- Association DECLENCHE -->
<g>
	<line x1="99" y1="479" x2="99" y2="395" stroke="#bf812d" stroke-width="2"/>
	<line x1="99" y1="303" x2="99" y2="395" stroke="#bf812d" stroke-width="2"/>
	<g>
		<path d="M123 370 a14 14 90 0 1 14 14 V395 h-76 V384 a14 14 90 0 1 14 -14" fill="#dfc27d" stroke="#dfc27d" stroke-width="0"/>
		<path d="M137 395 v11 a14 14 90 0 1 -14 14 H75 a14 14 90 0 1 -14 -14 V395 H76" fill="#f6e8c3" stroke="#f6e8c3" stroke-width="0"/>
		<rect x="61" y="370" width="76" height="50" fill="none" rx="14" stroke="#bf812d" stroke-width="2"/>
		<line x1="61" y1="395" x2="137" y2="395" stroke="#bf812d" stroke-width="1"/>
		<text x="69" y="387.75" fill="#000000" font-family="Verdana" font-size="12">déclenche</text>
	</g>
	<text x="104" y="437" fill="#01665e" font-family="Verdana" font-size="12">0,N</text>
	<text x="104" y="362" fill="#01665e" font-family="Verdana" font-size="12">1,1</text>
</g>

<!-- Association APPARTIENT -->
<g>
	<line x1="99" y1="647" x2="99" y2="563" stroke="#bf812d" stroke-width="2"/>
	<line x1="99" y1="479" x2="99" y2="563" stroke="#bf812d" stroke-width="2"/>
	<g>
		<path d="M124 538 a14 14 90 0 1 14 14 V563 h-78 V552 a14 14 90 0 1 14 -14" fill="#dfc27d" stroke="#dfc27d" stroke-width="0"/>
		<path d="M138 563 v11 a14 14 90 0 1 -14 14 H74 a14 14 90 0 1 -14 -14 V563 H78" fill="#f6e8c3" stroke="#f6e8c3" stroke-width="0"/>
		<rect x="60" y="538" width="78" height="50" fill="none" rx="14" stroke="#bf812d" stroke-width="2"/>
		<line x1="60" y1="563" x2="138" y2="563" stroke="#bf812d" stroke-width="1"/>
		<text x="68" y="555.75" fill="#000000" font-family="Verdana" font-size="12">appartient</text>
	</g>
	<text x="104" y="605" fill="#01665e" font-family="Verdana" font-size="12">0,N</text>
	<text x="104" y="530" fill="#01665e" font-family="Verdana" font-size="12">1,1</text>
</g>

<!-- Entity USER -->
<g>
	<g>
		<rect x="65" y="9" width="68" height="25" fill="#80cdc1" stroke="none" stroke-width="0" opacity="1"/>
		<rect x="65" y="34" width="68" height="127" fill="#c7eae5" stroke="none" stroke-width="0" opacity="1"/>
		<rect x="65" y="9" width="68" height="152" fill="none" stroke="#35978f" stroke-width="2" opacity="1"/>
		<line x1="65" y1="34" x2="133" y2="34" stroke="#35978f" stroke-width="1"/>
	</g>
	<text x="82" y="26.75" fill="#000000" font-family="Verdana" font-size="12">USER</text>
	<text x="70" y="51.8" fill="#000000" font-family="Verdana" font-size="12">id</text>
	<line x1="70" y1="54" x2="82" y2="54" stroke="#000000" stroke-width="1"/>
	<text x="70" y="68.8" fill="#000000" font-family="Verdana" font-size="12">nom</text>
	<text x="70" y="85.8" fill="#000000" font-family="Verdana" font-size="12">prenom</text>
	<text x="70" y="102.8" fill="#000000" font-family="Verdana" font-size="12">age</text>
	<text x="70" y="119.8" fill="#000000" font-family="Verdana" font-size="12">genre</text>
	<text x="70" y="136.8" fill="#000000" font-family="Verdana" font-size="12">mail</text>
	<text x="70" y="153.8" fill="#000000" font-family="Verdana" font-size="12">password</text>
</g>

<!-- Entity MOUVEMENT -->
<g>
	<g>
		<rect x="21" y="261" width="156" height="25" fill="#80cdc1" stroke="none" stroke-width="0" opacity="1"/>
		<rect x="21" y="286" width="156" height="59" fill="#c7eae5" stroke="none" stroke-width="0" opacity="1"/>
		<rect x="21" y="261" width="156" height="84" fill="none" stroke="#35978f" stroke-width="2" opacity="1"/>
		<line x1="21" y1="286" x2="177" y2="286" stroke="#35978f" stroke-width="1"/>
	</g>
	<text x="60" y="278.75" fill="#000000" font-family="Verdana" font-size="12">MOUVEMENT</text>
	<text x="26" y="303.8" fill="#000000" font-family="Verdana" font-size="12">id</text>
	<line x1="26" y1="306" x2="38" y2="306" stroke="#000000" stroke-width="1"/>
	<text x="26" y="320.8" fill="#000000" font-family="Verdana" font-size="12">type(ponctuel/recurent)</text>
	<text x="26" y="337.8" fill="#000000" font-family="Verdana" font-size="12">montant</text>
</g>

<!-- Entity OPERATION -->
<g>
	<g>
		<rect x="9" y="445" width="180" height="25" fill="#80cdc1" stroke="none" stroke-width="0" opacity="1"/>
		<rect x="9" y="470" width="180" height="43" fill="#c7eae5" stroke="none" stroke-width="0" opacity="1"/>
		<rect x="9" y="445" width="180" height="68" fill="none" stroke="#35978f" stroke-width="2" opacity="1"/>
		<line x1="9" y1="470" x2="189" y2="470" stroke="#35978f" stroke-width="1"/>
	</g>
	<text x="63" y="462.75" fill="#000000" font-family="Verdana" font-size="12">OPERATION</text>
	<text x="14" y="487.8" fill="#000000" font-family="Verdana" font-size="12">id</text>
	<line x1="14" y1="490" x2="26" y2="490" stroke="#000000" stroke-width="1"/>
	<text x="14" y="504.8" fill="#000000" font-family="Verdana" font-size="12">name(debit/credit/epargne)</text>
</g>

<!-- Entity CATEGORY -->
<g>
	<g>
		<rect x="60" y="613" width="78" height="25" fill="#80cdc1" stroke="none" stroke-width="0" opacity="1"/>
		<rect x="60" y="638" width="78" height="43" fill="#c7eae5" stroke="none" stroke-width="0" opacity="1"/>
		<rect x="60" y="613" width="78" height="68" fill="none" stroke="#35978f" stroke-width="2" opacity="1"/>
		<line x1="60" y1="638" x2="138" y2="638" stroke="#35978f" stroke-width="1"/>
	</g>
	<text x="66" y="630.75" fill="#000000" font-family="Verdana" font-size="12">CATEGORY</text>
	<text x="65" y="655.8" fill="#000000" font-family="Verdana" font-size="12">id</text>
	<line x1="65" y1="658" x2="77" y2="658" stroke="#000000" stroke-width="1"/>
	<text x="65" y="672.8" fill="#000000" font-family="Verdana" font-size="12">name</text>
</g>
</svg>